# xmcd CD database file
#
# Track frame offsets:
#	150
#	17795
#	21475
#	44715
#	70240
#	170270
#	183680
#	204440
#	256770
#	283925
#
# Disc length: 4169 seconds
#
# Revision: 6
# Processed by: cddbd v1.5.2PL0 Copyright (c) Steve Scherf et al.
# Submitted via: CDex 1.51
#
DISCID=9510470a
DTITLE=Jimi Hendrix - Blue Wild Angel: Live At The Isle Of Wight [CD1]
DYEAR=2002
DGENRE=Rock
TTITLE0=God Save The Queen
TTITLE1=Sgt. Pepper's Lonely Hearts Club Band
TTITLE2=Spanish Castle Magic
TTITLE3=All Along The Watchtower
TTITLE4=Machine Gun
TTITLE5=Lover Man
TTITLE6=Freedom
TTITLE7=Red House
TTITLE8=Dolly Dagger
TTITLE9=Midnight Lightning
EXTD=Live at the Isle Of Wight YEAR: 2002
EXTT0=
EXTT1=
EXTT2=
EXTT3=
EXTT4=
EXTT5=
EXTT6=
EXTT7=
EXTT8=
EXTT9=
PLAYORDER=
